<?xml version="1.0" encoding="utf-8"?>
<!-- Generator: Adobe Illustrator 21.0.0, SVG Export Plug-In . SVG Version: 6.00 Build 0)  -->
<svg version="1.1" id="Periodic_Table" xmlns="http://www.w3.org/2000/svg" xmlns:xlink="http://www.w3.org/1999/xlink" x="0px"
	 y="0px" viewBox="0 0 326 326" style="enable-background:new 0 0 326 326;" xml:space="preserve">
<style type="text/css">
	.st0{opacity:0.1;}
	.st1{fill:#FFFFFF;}
</style>
<rect class="st0" width="326" height="326"/>
<title>Artboard 3</title>
<polygon class="st1" points="-843.5,5 -843.5,93 -841.5,93 -841.5,7 -531.5,7 -531.5,317 -841.5,317 -841.5,231 -843.5,231 
	-843.5,319 -529.5,319 -529.5,5 "/>
<text transform="matrix(1 0 0 1 -725.2718 178.423)" class="st1" style="font-family:'Montserrat-ExtraLight'; font-size:103.4875px;">B</text>
<text transform="matrix(1 0 0 1 -732.2734 216.8)" class="st1" style="font-family:'Montserrat-ExtraLight'; font-size:29.2176px;">boron</text>
<text transform="matrix(0.9719 0 0 1 -830.2734 45.7969)" class="st1" style="font-family:'Montserrat-ExtraLight'; font-size:37.4533px;">5</text>
<text transform="matrix(1 0 0 1 -635.1476 303.5997)" class="st1" style="font-family:'Montserrat-ExtraLight'; font-size:37.4533px;">10.81</text>
<g>
	<path class="st1" d="M186,158.5c0-9.7-8-15.3-21.9-15.3H139v30.9h25.1C178.1,174.2,186,168.5,186,158.5z"/>
	<path class="st1" d="M247,278.8c-5.2,0-8,4.1-8,11.7s2.8,11.8,8,11.8s8-4.1,8-11.8C255,282.8,252.1,278.8,247,278.8z"/>
	<path class="st1" d="M171.7,202.7c-3.7,0-6.3,2.7-6.3,6.5c0,3.9,2.7,6.5,6.3,6.5c3.7,0,6.3-2.7,6.3-6.5
		C178.1,205.4,175.4,202.7,171.7,202.7z"/>
	<path class="st1" d="M143.7,202.7c-3.7,0-6.3,2.7-6.3,6.5c0,3.9,2.7,6.5,6.3,6.5c3.7,0,6.3-2.7,6.3-6.5S147.4,202.7,143.7,202.7z"
		/>
	<path class="st1" d="M182.4,124.5c0-9-6.7-14.2-18.3-14.2H139v28.6h25.1C175.7,138.9,182.4,133.7,182.4,124.5z"/>
	<path class="st1" d="M125.9,202.7c-3.7,0-6.3,2.7-6.3,6.5s2.6,6.5,6.3,6.5s6.3-2.7,6.3-6.5S129.6,202.7,125.9,202.7z"/>
	<path class="st1" d="M6,5v314h314V5H6z M27.9,45.8c-2.8,0-6.2-1.1-8.7-2.7l0.7-1.3c2.3,1.5,5.4,2.5,7.9,2.5c4.7,0,7.6-2.7,7.6-6.9
		c0-3.6-3-6-7.6-6c-1.9,0-4.8,0.4-6.8,1.1V19.6h15v1.5H22.5v9.6c1.7-0.5,4-0.8,5.6-0.8c5.5,0,9,3,9,7.5C37,42.5,33.4,45.8,27.9,45.8
		z M126.1,216.8c-3,0-5.3-1.5-6.5-4v4h-1.2v-21.7h1.2v10.5c1.1-2.5,3.5-4,6.5-4c4.3,0,7.3,3.2,7.3,7.7
		C133.4,213.6,130.3,216.8,126.1,216.8z M134.6,106.1h29.6c14.2,0,22.6,6.6,22.6,17.9c0,8.9-5.1,15-14,16.7
		c11.2,1.3,17.6,8.2,17.6,18.3c0,12.3-9.6,19.5-26,19.5h-29.8L134.6,106.1L134.6,106.1z M143.7,216.8c-4.3,0-7.5-3.2-7.5-7.7
		s3.2-7.6,7.5-7.6c4.4,0,7.5,3.2,7.5,7.6C151.2,213.7,148.1,216.8,143.7,216.8z M162.5,202.8c-3.4,0-5.4,2.2-5.7,5.8v8.2h-1.2v-15.2
		h1.2v3.8c1-2.5,3-3.8,5.7-3.9V202.8z M171.7,216.8c-4.3,0-7.5-3.2-7.5-7.7s3.2-7.6,7.5-7.6c4.4,0,7.5,3.2,7.5,7.6
		C179.3,213.7,176.1,216.8,171.7,216.8z M197.1,216.8h-1.2v-9.1c0-3.1-1.8-5-5-5c-3.5,0.1-5.7,2.3-5.9,5.8v8.2h-1.2v-15.2h1.2v3.9
		c1-2.5,3.2-3.9,6.2-3.9c3.7,0,5.9,2.3,5.9,6V216.8z M225.1,303.6h-1.5v-24.7h-6.7v-1.5h8.2V303.6z M247,303.6
		c-6.1,0-9.5-4.7-9.5-13.2c0-8.4,3.4-13.1,9.5-13.1c6.2,0,9.6,4.7,9.6,13.1C256.5,299,253.1,303.6,247,303.6z M261.9,303.9
		c-0.7,0-1.3-0.6-1.3-1.4c0-0.7,0.6-1.3,1.3-1.3s1.3,0.6,1.3,1.3C263.2,303.3,262.6,303.9,261.9,303.9z M276.9,303.6
		c-5.8,0-9.4-2.7-9.4-7.3c0-3.5,2.3-5.8,6-6.8c-3-1-4.7-3-4.7-5.9c0-4,3.1-6.3,8.1-6.3s8.1,2.4,8.1,6.4c0,3-1.7,4.9-4.7,5.9
		c3.7,0.9,5.9,3.3,5.9,6.7C286.2,300.9,282.7,303.6,276.9,303.6z M301.2,303.6h-1.5v-24.7H293v-1.5h8.2V303.6z"/>
	<path class="st1" d="M283.5,283.8c0-3.2-2.5-5.1-6.7-5.1s-6.7,1.9-6.7,5.1c0,3.3,2.5,5.2,6.7,5.2S283.5,287,283.5,283.8z"/>
	<path class="st1" d="M276.8,290.4c-4.8,0-7.8,2.2-7.8,5.7c0,3.8,3,6.1,7.9,6.1c4.8,0,7.8-2.2,7.8-6
		C284.7,292.6,281.8,290.4,276.8,290.4z"/>
</g>
<g>
	<path class="st1" d="M186,158.5c0-9.7-8-15.3-21.9-15.3H139v30.9h25.1C178.1,174.2,186,168.5,186,158.5z"/>
	<path class="st1" d="M247,278.8c-5.2,0-8,4.1-8,11.7s2.8,11.8,8,11.8s8-4.1,8-11.8C255,282.8,252.1,278.8,247,278.8z"/>
	<path class="st1" d="M171.7,202.7c-3.7,0-6.3,2.7-6.3,6.5c0,3.9,2.7,6.5,6.3,6.5c3.7,0,6.3-2.7,6.3-6.5
		C178.1,205.4,175.4,202.7,171.7,202.7z"/>
	<path class="st1" d="M143.7,202.7c-3.7,0-6.3,2.7-6.3,6.5c0,3.9,2.7,6.5,6.3,6.5c3.7,0,6.3-2.7,6.3-6.5S147.4,202.7,143.7,202.7z"
		/>
	<path class="st1" d="M182.4,124.5c0-9-6.7-14.2-18.3-14.2H139v28.6h25.1C175.7,138.9,182.4,133.7,182.4,124.5z"/>
	<path class="st1" d="M125.9,202.7c-3.7,0-6.3,2.7-6.3,6.5s2.6,6.5,6.3,6.5s6.3-2.7,6.3-6.5S129.6,202.7,125.9,202.7z"/>
	<path class="st1" d="M6,5v314h314V5H6z M27.9,45.8c-2.8,0-6.2-1.1-8.7-2.7l0.7-1.3c2.3,1.5,5.4,2.5,7.9,2.5c4.7,0,7.6-2.7,7.6-6.9
		c0-3.6-3-6-7.6-6c-1.9,0-4.8,0.4-6.8,1.1V19.6h15v1.5H22.5v9.6c1.7-0.5,4-0.8,5.6-0.8c5.5,0,9,3,9,7.5C37,42.5,33.4,45.8,27.9,45.8
		z M126.1,216.8c-3,0-5.3-1.5-6.5-4v4h-1.2v-21.7h1.2v10.5c1.1-2.5,3.5-4,6.5-4c4.3,0,7.3,3.2,7.3,7.7
		C133.4,213.6,130.3,216.8,126.1,216.8z M134.6,106.1h29.6c14.2,0,22.6,6.6,22.6,17.9c0,8.9-5.1,15-14,16.7
		c11.2,1.3,17.6,8.2,17.6,18.3c0,12.3-9.6,19.5-26,19.5h-29.8L134.6,106.1L134.6,106.1z M143.7,216.8c-4.3,0-7.5-3.2-7.5-7.7
		s3.2-7.6,7.5-7.6c4.4,0,7.5,3.2,7.5,7.6C151.2,213.7,148.1,216.8,143.7,216.8z M162.5,202.8c-3.4,0-5.4,2.2-5.7,5.8v8.2h-1.2v-15.2
		h1.2v3.8c1-2.5,3-3.8,5.7-3.9V202.8z M171.7,216.8c-4.3,0-7.5-3.2-7.5-7.7s3.2-7.6,7.5-7.6c4.4,0,7.5,3.2,7.5,7.6
		C179.3,213.7,176.1,216.8,171.7,216.8z M197.1,216.8h-1.2v-9.1c0-3.1-1.8-5-5-5c-3.5,0.1-5.7,2.3-5.9,5.8v8.2h-1.2v-15.2h1.2v3.9
		c1-2.5,3.2-3.9,6.2-3.9c3.7,0,5.9,2.3,5.9,6V216.8z M225.1,303.6h-1.5v-24.7h-6.7v-1.5h8.2V303.6z M247,303.6
		c-6.1,0-9.5-4.7-9.5-13.2c0-8.4,3.4-13.1,9.5-13.1c6.2,0,9.6,4.7,9.6,13.1C256.5,299,253.1,303.6,247,303.6z M261.9,303.9
		c-0.7,0-1.3-0.6-1.3-1.4c0-0.7,0.6-1.3,1.3-1.3s1.3,0.6,1.3,1.3C263.2,303.3,262.6,303.9,261.9,303.9z M276.9,303.6
		c-5.8,0-9.4-2.7-9.4-7.3c0-3.5,2.3-5.8,6-6.8c-3-1-4.7-3-4.7-5.9c0-4,3.1-6.3,8.1-6.3s8.1,2.4,8.1,6.4c0,3-1.7,4.9-4.7,5.9
		c3.7,0.9,5.9,3.3,5.9,6.7C286.2,300.9,282.7,303.6,276.9,303.6z M301.2,303.6h-1.5v-24.7H293v-1.5h8.2V303.6z"/>
	<path class="st1" d="M283.5,283.8c0-3.2-2.5-5.1-6.7-5.1s-6.7,1.9-6.7,5.1c0,3.3,2.5,5.2,6.7,5.2S283.5,287,283.5,283.8z"/>
	<path class="st1" d="M276.8,290.4c-4.8,0-7.8,2.2-7.8,5.7c0,3.8,3,6.1,7.9,6.1c4.8,0,7.8-2.2,7.8-6
		C284.7,292.6,281.8,290.4,276.8,290.4z"/>
</g>
</svg>
