<?xml version="1.0" encoding="utf-8"?>
<!-- Generator: Adobe Illustrator 21.0.0, SVG Export Plug-In . SVG Version: 6.00 Build 0)  -->
<svg version="1.1" id="Layer_1" xmlns="http://www.w3.org/2000/svg" xmlns:xlink="http://www.w3.org/1999/xlink" x="0px" y="0px"
	 viewBox="0 0 724 724" style="enable-background:new 0 0 724 724;" xml:space="preserve">
<style type="text/css">
	.st0{fill:#FF6F43;}
	.st1{fill:#FFFFFF;}
	.st2{enable-background:new    ;}
</style>
<g>
	<rect class="st0" width="724" height="724"/>
</g>
<path class="st1" d="M483.1,620.9l-17.9,29.5h20.4V637h2.6v13.4h7.5v2.7H488V666h-2.6v-12.9h-23.1v-2.6l18.1-29.6L483.1,620.9z"/>
<path class="st1" d="M506.9,664c0,1.2-0.9,2.3-2.2,2.4c-1.2,0-2.2-0.9-2.2-2.1c0-0.1,0-0.2,0-0.2c0-1.2,1-2.2,2.2-2.2
	C505.9,661.9,506.9,662.8,506.9,664z"/>
<path class="st1" d="M546.7,643.3c0,14.6-5.8,22.6-16.4,22.6s-16.3-8-16.3-22.6s5.8-22.5,16.3-22.5S546.7,628.9,546.7,643.3z
	 M516.6,643.3c0,13.1,4.8,20.2,13.7,20.2c8.9,0,13.8-7.1,13.8-20.2c0-13.1-4.9-20.1-13.8-20.1C521.4,623.3,516.6,630.3,516.6,643.3z
	"/>
<path class="st1" d="M586.4,643.3c0,14.6-5.8,22.6-16.4,22.6s-16.3-8-16.3-22.6s5.8-22.5,16.3-22.5S586.4,628.9,586.4,643.3z
	 M556.3,643.3c0,13.1,4.8,20.2,13.7,20.2c8.9,0,13.8-7.1,13.8-20.2c0-13.1-4.9-20.1-13.8-20.1S556.3,630.3,556.3,643.3z"/>
<path class="st1" d="M619,631.8c0-5.2-4.3-8.4-11.1-8.4c-4.8,0.2-9.5,2.1-12.9,5.5l-1.4-2.2c3.9-3.8,9.1-5.9,14.5-6
	c8.4,0,13.6,4.1,13.6,10.8c0,4-3.2,9.3-8.2,14.4l-16.7,17.2H625v2.7h-31.3V663l18.1-18.9C616.2,639.7,619,635.1,619,631.8z"/>
<path class="st1" d="M651.8,623.3c-10.9,0-16.7,9.5-15.4,24.8c1.6-6.8,7.1-10.8,14.9-10.8c8.9,0,14.5,5.3,14.5,14.1
	c0,8.8-5.9,14.5-15.1,14.5c-10.8,0-17.2-7.6-17.2-21.5c0-14.3,6.9-23.8,18-23.8c4.3,0.1,8.5,1.1,12.3,3l-1.2,2.2
	C659.3,624.2,655.6,623.3,651.8,623.3z M637.5,651.8c0,4.8,3.8,11.6,12.9,11.6c7.5,0,12.7-4.6,12.7-12c0-7.1-4.8-11.5-12.2-11.5
	C642.6,639.9,637.5,645.6,637.5,651.8L637.5,651.8z"/>
<g class="st2">
	<path class="st1" d="M98.4,72.6c0-7.4-6-11.9-15.8-11.9c-6.4,0-13.2,2.9-18.3,7.8l-1.9-3C67.9,60.2,75.6,57,83,57
		c11.9,0,19.3,5.8,19.3,15.2c0,5.7-4.6,13.1-11.6,20.4L67,117.2h39.9v3.8H62.4l0.1-3.9l25.6-26.8C94.4,83.9,98.4,77.2,98.4,72.6z"/>
</g>
<polygon class="st1" points="24.4,24.4 24.4,213.6 28.7,213.6 28.7,28.7 695.3,28.7 695.3,695.3 28.7,695.3 28.7,510.4 24.4,510.4 
	24.4,699.6 699.6,699.6 699.6,24.4 "/>
<g>
	<path class="st1" d="M371.9,225.3v11.9H253.3v80.9h105.6v12.2H253.3v85.9h122.4v11.9H241.1V225.3H371.9z"/>
	<path class="st1" d="M495.2,417.6c-9.6,6.7-20.3,10.7-31.6,10.7c-21.5,0.3-34.2-13.6-34.2-42.1v-95.2h-22v-10.4h22v-37.4H441v37.4
		h51.3v10.4H441v93.7c0,21.5,8.4,31.9,24.1,31.6c8.7,0,17.7-3.2,25.5-8.7L495.2,417.6z"/>
</g>
<text transform="matrix(1 0 0 1 967.4326 73.6425)" class="st1" style="font-family:'Montserrat-ExtraLight'; font-size:292.8696px;">Et</text>
<g>
	<path class="st1" d="M280.1,477.4h-22.6c0.3,6.3,4.7,10.6,10.7,10.6c3.5,0,6.7-1.3,8.8-3.6l1.2,1.3c-2.4,2.6-5.9,4.1-10.1,4.1
		c-7.3,0-12.6-5.4-12.6-13s5.3-13,12.6-13C275.7,463.8,280.3,469.4,280.1,477.4z M278.2,475.6c-0.4-5.9-4.2-9.9-10.2-9.9
		c-5.8,0-10.1,4-10.6,9.9H278.2z"/>
	<path class="st1" d="M289.9,452.9v36.9h-2.1v-36.9H289.9z"/>
	<path class="st1" d="M322.4,477.4h-22.6c0.3,6.3,4.7,10.6,10.7,10.6c3.5,0,6.7-1.3,8.8-3.6l1.2,1.3c-2.4,2.6-5.9,4.1-10.1,4.1
		c-7.3,0-12.6-5.4-12.6-13s5.3-13,12.6-13C317.9,463.8,322.5,469.4,322.4,477.4z M320.5,475.6c-0.4-5.9-4.2-9.9-10.2-9.9
		c-5.8,0-10.1,4-10.6,9.9H320.5z"/>
	<path class="st1" d="M372.3,474v15.8h-2v-15.4c0-5.3-3.1-8.5-8.3-8.5c-6.2,0.1-9.9,4.4-9.9,11.2v12.7h-2v-15.4
		c0-5.3-3.1-8.5-8.3-8.5c-6.2,0.1-9.9,4.4-9.9,11.2v12.7h-2v-25.9h2v6.8c1.7-4.4,5.3-6.8,10.5-6.9c5.2,0,8.7,2.8,9.6,7.5
		c1.6-4.8,5.3-7.4,10.6-7.5C368.7,463.8,372.3,467.7,372.3,474z"/>
	<path class="st1" d="M403.7,477.4h-22.6c0.3,6.3,4.7,10.6,10.7,10.6c3.5,0,6.7-1.3,8.8-3.6l1.2,1.3c-2.4,2.6-5.9,4.1-10.1,4.1
		c-7.3,0-12.6-5.4-12.6-13s5.3-13,12.6-13C399.3,463.8,403.9,469.4,403.7,477.4z M401.8,475.6c-0.4-5.9-4.2-9.9-10.2-9.9
		c-5.8,0-10.1,4-10.6,9.9H401.8z"/>
	<path class="st1" d="M433.9,474v15.8h-2.1v-15.4c0-5.3-3.1-8.5-8.5-8.5c-6,0.1-9.7,3.9-10.1,9.9v14h-2.1v-25.9h2.1v6.6
		c1.7-4.3,5.4-6.6,10.6-6.7C430.1,463.8,433.9,467.7,433.9,474z"/>
	<path class="st1" d="M455.6,488c-1.6,1.1-3.5,1.8-5.4,1.8c-3.7,0-5.9-2.3-5.9-7.2v-16.3h-3.8v-1.8h3.8v-6.4h2v6.4h8.8v1.8h-8.8
		v16.1c0,3.7,1.4,5.5,4.1,5.4c1.5,0,3-0.5,4.4-1.5L455.6,488z"/>
	<path class="st1" d="M468,465.7c-3.6,0-6.5,1.4-6.5,4.5c0,7,15.1,3.5,15.1,12.7c0,4.8-4.3,7-9,7c-3.6,0-7.1-1.3-9.5-3.6l0.9-1.6
		c2.2,2.1,5.4,3.3,8.7,3.3c3.6,0,6.8-1.4,6.9-4.7c0.2-7.3-15.1-4-15.1-12.9c0-4.5,3.9-6.5,8.5-6.5c2.9,0,5.4,0.8,7.4,2l-0.9,1.7
		C472.7,466.4,470.5,465.7,468,465.7z"/>
</g>
</svg>
