<?xml version="1.0" encoding="utf-8"?>
<!-- Generator: Adobe Illustrator 21.0.0, SVG Export Plug-In . SVG Version: 6.00 Build 0)  -->
<svg version="1.1" id="Periodic_Table" xmlns="http://www.w3.org/2000/svg" xmlns:xlink="http://www.w3.org/1999/xlink" x="0px"
	 y="0px" viewBox="0 0 314 314" style="enable-background:new 0 0 314 314;" xml:space="preserve">
<style type="text/css">
	.st0{fill:#FFFFFF;}
</style>
<title>Artboard 3</title>
<g>
	<path class="st0" d="M-607.3,277.4l-8.3,13.7h9.5v-6.3h1.2v6.3h3.5v1.3h-3.6v6h-1.2v-6H-617v-1.2l8.4-13.8L-607.3,277.4z"/>
	<path class="st0" d="M-596.3,297.5c0,0.6-0.4,1.1-1,1.1c-0.6,0-1-0.4-1-1c0,0,0-0.1,0-0.1c0-0.6,0.4-1,1-1
		S-596.3,296.9-596.3,297.5z"/>
	<path class="st0" d="M-577.8,287.8c0,6.8-2.7,10.5-7.6,10.5c-4.9,0-7.6-3.7-7.6-10.5s2.7-10.5,7.6-10.5
		C-580.5,277.4-577.8,281.1-577.8,287.8z M-591.8,287.8c0,6.1,2.2,9.4,6.4,9.4c4.1,0,6.4-3.3,6.4-9.4s-2.3-9.3-6.4-9.3
		C-589.5,278.5-591.8,281.8-591.8,287.8z"/>
	<path class="st0" d="M-559.3,287.8c0,6.8-2.7,10.5-7.6,10.5c-4.9,0-7.6-3.7-7.6-10.5s2.7-10.5,7.6-10.5
		C-562,277.4-559.3,281.1-559.3,287.8z M-573.3,287.8c0,6.1,2.2,9.4,6.4,9.4c4.1,0,6.4-3.3,6.4-9.4s-2.3-9.3-6.4-9.3
		S-573.3,281.8-573.3,287.8z"/>
	<path class="st0" d="M-544.1,282.5c0-2.4-2-3.9-5.2-3.9c-2.3,0.1-4.4,1-6,2.6l-0.6-1c1.8-1.8,4.2-2.8,6.8-2.8c3.9,0,6.3,1.9,6.3,5
		c0,1.9-1.5,4.3-3.8,6.7l-7.8,8h13.1v1.3h-14.6V297l8.4-8.8C-545.4,286.2-544.1,284-544.1,282.5z"/>
	<path class="st0" d="M-528.9,278.5c-5.1,0-7.8,4.4-7.1,11.5c0.8-3.1,3.3-5,6.9-5c4.2,0,6.7,2.5,6.7,6.5s-2.8,6.7-7,6.7
		c-5,0-8-3.5-8-10c0-6.7,3.2-11.1,8.4-11.1c2,0,4,0.5,5.7,1.4l-0.5,1C-525.4,278.9-527.1,278.5-528.9,278.5z M-535.5,291.8
		c0,2.2,1.8,5.4,6,5.4c3.5,0,5.9-2.1,5.9-5.6c0-3.3-2.2-5.4-5.7-5.4C-533.1,286.2-535.5,288.9-535.5,291.8L-535.5,291.8z"/>
	<path class="st0" d="M-714.7,106.8v33h47v-33h4v70h-4v-33h-47v33h-5v-70H-714.7z"/>
	<path class="st0" d="M-597.7,151.8H-643c0.6,12.7,9.4,21.2,21.4,21.2c7.1,0,13.4-2.6,17.5-7.2l2.4,2.7c-4.8,5.2-11.9,8.3-20.1,8.3
		c-14.6,0-25.3-10.8-25.3-26s10.7-26.1,25.3-26.1C-606.6,124.6-597.4,135.8-597.7,151.8z M-601.4,147.8
		c-0.8-11.8-8.5-19.7-20.3-19.7c-11.7,0-20.1,8-21.1,19.7H-601.4z"/>
	<path class="st0" d="M-695.5,199.4v9.4h-1.3v-9.2c0-3.2-1.9-5-5-5c-3.8,0.1-6.1,2.6-6.1,6.7v7.6h-1.3v-22h1.3v10.6
		c1-2.6,3.2-4,6.4-4.1C-697.7,193.4-695.5,195.6-695.5,199.4z"/>
	<path class="st0" d="M-676.8,201.5h-13.5c0,3.4,2.7,6.3,6.1,6.3c0.1,0,0.2,0,0.2,0c2,0.1,3.9-0.7,5.2-2.1l0.7,0.8
		c-1.6,1.6-3.7,2.5-6,2.5c-4.3-0.2-7.6-3.8-7.5-8c0.1-4.1,3.4-7.3,7.5-7.5C-679.4,193.4-676.7,196.7-676.8,201.5z M-677.9,200.4
		c-0.2-3.5-2.5-5.9-6-5.9c-3.4-0.1-6.2,2.5-6.3,5.9H-677.9z"/>
	<path class="st0" d="M-671,186.8v22h-1.3v-22H-671z"/>
	<path class="st0" d="M-663,188.9c0,0.6-0.5,1-1.1,0.9c-0.6,0-1-0.5-0.9-1.1c0-0.5,0.5-0.9,1-0.9C-663.4,187.9-663,188.4-663,188.9z
		 M-663.4,193.4v15.4h-1.2v-15.4H-663.4z"/>
	<path class="st0" d="M-644.4,193.4v15.4h-1.2v-4.1c-0.9,2.6-3.4,4.3-6.2,4.1c-3.7,0-5.9-2.3-5.9-6.1v-9.4h1.2v9.2c0,3.2,1.8,5,5,5
		c3.7-0.1,5.9-2.6,5.9-6.7v-7.6L-644.4,193.4z"/>
	<path class="st0" d="M-612.9,199.4v9.4h-1.2v-9.2c0-3.2-1.8-5-5-5c-3.7,0.1-5.9,2.6-5.9,6.7v7.6h-1.2v-9.2c0-3.2-1.9-5-5-5
		c-3.7,0.1-5.9,2.6-5.9,6.7v7.6h-1.2v-15.5h1.2v4.1c1-2.6,3.2-4,6.2-4.1s5.2,1.7,5.7,4.5c0.8-2.8,3.4-4.6,6.3-4.5
		C-615.1,193.4-612.9,195.6-612.9,199.4z"/>
	<text transform="matrix(1 0 0 1 -805.5229 44.91)" class="st0" style="font-family:'Montserrat-Regular'; font-size:42.42px;">2</text>
	<polygon class="st0" points="-820.7,0 -820.7,88 -818.7,88 -818.7,2 -508.7,2 -508.7,312 -818.7,312 -818.7,226 -820.7,226 
		-820.7,314 -506.7,314 -506.7,0 	"/>
</g>
<g>
	<path class="st0" d="M198.9,128.1c-11.7,0-20.1,8-21.1,19.7h41.5C218.4,136.1,210.7,128.1,198.9,128.1z"/>
	<path class="st0" d="M253.7,278.5c-4.1,0-6.4,3.3-6.4,9.3c0,6.1,2.2,9.4,6.4,9.4c4.1,0,6.4-3.3,6.4-9.4
		C260.1,281.7,257.9,278.5,253.7,278.5z"/>
	<path class="st0" d="M235.3,278.5c-4.1,0-6.4,3.3-6.4,9.3c0,6.1,2.2,9.4,6.4,9.4c4.1,0,6.4-3.3,6.4-9.4
		C241.7,281.7,239.4,278.5,235.3,278.5z"/>
	<path class="st0" d="M291.4,286.2c-3.9,0-6.2,2.7-6.2,5.6h0c0,2.2,1.8,5.4,6,5.4c3.5,0,5.9-2.1,5.9-5.6
		C297.1,288.3,294.8,286.2,291.4,286.2z"/>
	<path class="st0" d="M136.7,194.5c-3.4-0.1-6.2,2.5-6.3,5.9h12.3C142.5,196.9,140.2,194.5,136.7,194.5z"/>
	<path class="st0" d="M0,0v314h314V0H0z M39.1,44.9H17.3v-3.7l11.3-11.7c2.2-2.2,3.8-4.6,3.8-6.3c0-2.4-2-3.8-5.2-3.8
		c-2.7,0-5.8,1.4-8.4,3.7l-2-3.9C20.1,16.6,24,15,27.9,15c5.8,0,9.8,2.9,9.8,7.5c0,3-2.3,6.3-5.6,9.7l-8.1,8.2h15.2V44.9z
		 M125.1,208.8h-1.3v-9.2c0-3.2-1.9-5-5-5c-3.8,0.1-6,2.6-6,6.7v7.6h-1.3v-22h1.3v10.6c1-2.6,3.2-4,6.4-4.1c3.7,0,5.9,2.2,5.9,6
		V208.8z M136.5,207.8c0.1,0,0.2,0,0.2,0c2,0.1,3.9-0.7,5.2-2.1l0.7,0.8c-1.6,1.6-3.7,2.5-6,2.5c-4.3-0.2-7.6-3.8-7.5-8
		c0.1-4.1,3.4-7.3,7.5-7.5c4.5,0,7.3,3.3,7.2,8.1h-13.5C130.3,204.9,133.1,207.7,136.5,207.8z M149.7,208.8h-1.3v-22h1.3V208.8z
		 M106,143.8v33h-5v-70h5v33h47v-33h4v70h-4v-33H106z M157.2,208.8H156v-15.4h1.2V208.8z M156.6,189.9c-0.6,0-1-0.5-0.9-1.1
		c0-0.5,0.5-0.9,1-0.9c0.6,0,1,0.5,1,1.1C157.6,189.5,157.1,189.9,156.6,189.9z M176.2,208.8H175v-4.1c-0.9,2.6-3.4,4.3-6.2,4.2
		c-3.7,0-5.9-2.3-5.9-6v-9.4h1.2v9.2c0,3.2,1.8,5,5,5c3.7-0.1,5.9-2.6,5.9-6.7v-7.6l1.2,0V208.8z M173.5,150.8
		c0-15.2,10.7-26.1,25.3-26.1c15.3,0,24.4,11.1,24.2,27.2h-45.4c0.6,12.7,9.4,21.2,21.4,21.2c7.1,0,13.4-2.6,17.5-7.2l2.4,2.7
		c-4.8,5.2-11.9,8.3-20.1,8.3C184.2,176.8,173.5,166,173.5,150.8z M195.7,201.3v7.6h-1.2v-9.2c0-3.2-1.9-5-5-5
		c-3.7,0.1-5.9,2.6-5.9,6.7v7.6h-1.2v-15.5h1.2v4.1c1-2.6,3.2-4,6.2-4.1c3.1-0.1,5.2,1.7,5.7,4.5c0.8-2.8,3.4-4.6,6.3-4.5
		c3.7,0,5.9,2.3,5.9,6v9.4h-1.2v-9.2c0-3.2-1.8-5-5-5C197.8,194.7,195.7,197.3,195.7,201.3z M219.2,292.4h-3.6v6h-1.2v-6h-10.8v-1.2
		l8.4-13.8l1.3,0l-8.3,13.7h9.5v-6.3h1.2v6.3h3.5V292.4z M223.4,298.6c-0.6,0-1-0.4-1-1c0,0,0-0.1,0-0.1c0-0.6,0.4-1,1-1
		c0.6,0,1,0.4,1,1C224.4,298,224,298.5,223.4,298.6z M235.3,298.4c-4.9,0-7.6-3.7-7.6-10.5c0-6.8,2.7-10.5,7.6-10.5
		c4.9,0,7.6,3.7,7.6,10.5C242.9,294.6,240.2,298.4,235.3,298.4z M253.7,298.4c-4.9,0-7.6-3.7-7.6-10.5c0-6.8,2.7-10.5,7.6-10.5
		c4.9,0,7.6,3.7,7.6,10.5C261.4,294.6,258.7,298.4,253.7,298.4z M279.3,298.3h-14.6V297l8.4-8.8c2.1-2,3.4-4.2,3.4-5.8
		c0-2.4-2-3.9-5.2-3.9c-2.3,0.1-4.4,1-6,2.6l-0.6-1c1.8-1.8,4.2-2.8,6.8-2.8c3.9,0,6.3,1.9,6.3,5c0,1.9-1.5,4.3-3.8,6.7l-7.8,8h13.1
		V298.3z M291.3,298.4c-5,0-8-3.5-8-10c0-6.7,3.2-11.1,8.4-11.1c2,0,4,0.5,5.7,1.4l-0.5,1c-1.6-0.8-3.3-1.2-5.1-1.2
		c-5.1,0-7.8,4.4-7.1,11.5c0.8-3.1,3.3-5,6.9-5c4.2,0,6.7,2.5,6.7,6.5C298.3,295.7,295.5,298.4,291.3,298.4z"/>
</g>
</svg>
