<?xml version="1.0" encoding="utf-8"?>
<!-- Generator: Adobe Illustrator 21.0.0, SVG Export Plug-In . SVG Version: 6.00 Build 0)  -->
<svg version="1.1" id="Periodic_Table" xmlns="http://www.w3.org/2000/svg" xmlns:xlink="http://www.w3.org/1999/xlink" x="0px"
	 y="0px" viewBox="0 0 326 326" style="enable-background:new 0 0 326 326;" xml:space="preserve">
<style type="text/css">
	.st0{fill:#FFFFFF;}
	.st1{opacity:0.1;}
</style>
<title>Artboard 3</title>
<g>
	<path class="st0" d="M-601.3,283.4l-8.3,13.7h9.5v-6.3h1.2v6.3h3.5v1.3h-3.6v6h-1.2v-6H-611v-1.2l8.4-13.8H-601.3z"/>
	<path class="st0" d="M-590.3,303.5c0,0.6-0.4,1.1-1,1.1s-1-0.4-1-1v-0.1c0-0.6,0.4-1,1-1S-590.3,302.9-590.3,303.5z"/>
	<path class="st0" d="M-571.8,293.8c0,6.8-2.7,10.5-7.6,10.5c-4.9,0-7.6-3.7-7.6-10.5s2.7-10.5,7.6-10.5
		C-574.5,283.4-571.8,287.1-571.8,293.8z M-585.8,293.8c0,6.1,2.2,9.4,6.4,9.4c4.1,0,6.4-3.3,6.4-9.4s-2.3-9.3-6.4-9.3
		S-585.8,287.8-585.8,293.8z"/>
	<path class="st0" d="M-553.3,293.8c0,6.8-2.7,10.5-7.6,10.5c-4.9,0-7.6-3.7-7.6-10.5s2.7-10.5,7.6-10.5
		C-556,283.4-553.3,287.1-553.3,293.8z M-567.3,293.8c0,6.1,2.2,9.4,6.4,9.4c4.1,0,6.4-3.3,6.4-9.4s-2.3-9.3-6.4-9.3
		S-567.3,287.8-567.3,293.8z"/>
	<path class="st0" d="M-538.1,288.5c0-2.4-2-3.9-5.2-3.9c-2.3,0.1-4.4,1-6,2.6l-0.6-1c1.8-1.8,4.2-2.8,6.8-2.8c3.9,0,6.3,1.9,6.3,5
		c0,1.9-1.5,4.3-3.8,6.7l-7.8,8h13.1v1.3h-14.6V303l8.4-8.8C-539.4,292.2-538.1,290-538.1,288.5z"/>
	<path class="st0" d="M-522.9,284.5c-5.1,0-7.8,4.4-7.1,11.5c0.8-3.1,3.3-5,6.9-5c4.2,0,6.7,2.5,6.7,6.5s-2.8,6.7-7,6.7
		c-5,0-8-3.5-8-10c0-6.7,3.2-11.1,8.4-11.1c2,0,4,0.5,5.7,1.4l-0.5,1C-519.4,284.9-521.1,284.5-522.9,284.5z M-529.5,297.8
		c0,2.2,1.8,5.4,6,5.4c3.5,0,5.9-2.1,5.9-5.6c0-3.3-2.2-5.4-5.7-5.4C-527.1,292.2-529.5,294.9-529.5,297.8L-529.5,297.8z"/>
	<path class="st0" d="M-708.7,112.8v33h47v-33h4v70h-4v-33h-47v33h-5v-70H-708.7z"/>
	<path class="st0" d="M-591.7,157.8H-637c0.6,12.7,9.4,21.2,21.4,21.2c7.1,0,13.4-2.6,17.5-7.2l2.4,2.7c-4.8,5.2-11.9,8.3-20.1,8.3
		c-14.6,0-25.3-10.8-25.3-26s10.7-26.1,25.3-26.1C-600.6,130.6-591.4,141.8-591.7,157.8z M-595.4,153.8
		c-0.8-11.8-8.5-19.7-20.3-19.7c-11.7,0-20.1,8-21.1,19.7H-595.4z"/>
	<path class="st0" d="M-689.5,205.4v9.4h-1.3v-9.2c0-3.2-1.9-5-5-5c-3.8,0.1-6.1,2.6-6.1,6.7v7.6h-1.3v-22h1.3v10.6
		c1-2.6,3.2-4,6.4-4.1C-691.7,199.4-689.5,201.6-689.5,205.4z"/>
	<path class="st0" d="M-670.8,207.5h-13.5c0,3.4,2.7,6.3,6.1,6.3c0.1,0,0.2,0,0.2,0c2,0.1,3.9-0.7,5.2-2.1l0.7,0.8
		c-1.6,1.6-3.7,2.5-6,2.5c-4.3-0.2-7.6-3.8-7.5-8c0.1-4.1,3.4-7.3,7.5-7.5C-673.4,199.4-670.7,202.7-670.8,207.5z M-671.9,206.4
		c-0.2-3.5-2.5-5.9-6-5.9c-3.4-0.1-6.2,2.5-6.3,5.9H-671.9z"/>
	<path class="st0" d="M-665,192.8v22h-1.3v-22H-665z"/>
	<path class="st0" d="M-657,194.9c0,0.6-0.5,1-1.1,0.9c-0.6,0-1-0.5-0.9-1.1c0-0.5,0.5-0.9,1-0.9C-657.4,193.9-657,194.4-657,194.9z
		 M-657.4,199.4v15.4h-1.2v-15.4H-657.4z"/>
	<path class="st0" d="M-638.4,199.4v15.4h-1.2v-4.1c-0.9,2.6-3.4,4.3-6.2,4.1c-3.7,0-5.9-2.3-5.9-6.1v-9.4h1.2v9.2c0,3.2,1.8,5,5,5
		c3.7-0.1,5.9-2.6,5.9-6.7v-7.6L-638.4,199.4z"/>
	<path class="st0" d="M-606.9,205.4v9.4h-1.2v-9.2c0-3.2-1.8-5-5-5c-3.7,0.1-5.9,2.6-5.9,6.7v7.6h-1.2v-9.2c0-3.2-1.9-5-5-5
		c-3.7,0.1-5.9,2.6-5.9,6.7v7.6h-1.2v-15.5h1.2v4.1c1-2.6,3.2-4,6.2-4.1s5.2,1.7,5.7,4.5c0.8-2.8,3.4-4.6,6.3-4.5
		C-609.1,199.4-606.9,201.6-606.9,205.4z"/>
	<text transform="matrix(1 0 0 1 -799.5229 50.91)" class="st0" style="font-family:'Montserrat-Regular'; font-size:42.42px;">2</text>
	<polygon class="st0" points="-814.7,6 -814.7,94 -812.7,94 -812.7,8 -502.7,8 -502.7,318 -812.7,318 -812.7,232 -814.7,232 
		-814.7,320 -500.7,320 -500.7,6 	"/>
</g>
<path class="st0" d="M-293,109.9v33h47v-33h4v70h-4v-33h-47v33h-5v-70C-298,109.9-293,109.9-293,109.9z"/>
<polygon class="st0" points="-425.7,6 -425.7,94 -423.7,94 -423.7,8 -113.7,8 -113.7,318 -423.7,318 -423.7,232 -425.7,232 
	-425.7,320 -111.7,320 -111.7,6 "/>
<text transform="matrix(1 0 0 1 -565.9995 -113.1123)" class="st0" style="font-family:'Montserrat-ExtraLight'; font-size:30.5736px;">hydrogen</text>
<text transform="matrix(1 0 0 1 -335.3332 216.0999)" class="st0" style="font-family:'Montserrat-ExtraLight'; font-size:30.5736px;">hydrogen</text>
<text transform="matrix(1 0 0 1 -412.1896 54.069)" class="st0" style="font-family:'Montserrat-ExtraLight'; font-size:48.9788px;">1</text>
<text transform="matrix(1 0 0 1 -207.3031 306.8688)" class="st0" style="font-family:'Montserrat-ExtraLight'; font-size:30.3213px;">1.008</text>
<g>
	<rect class="st1" width="326" height="326"/>
	<g>
		<path class="st0" d="M6,6v314h314V6H6z M132.5,109.9h5v33h47v-33h4v70h-4v-33h-47v33h-5V109.9z M35.1,54.1h-2V21.8h-8.8v-2h10.8
			C35.1,19.8,35.1,54.1,35.1,54.1z M112.5,216.1h-1.3v-9.5c0-3.3-1.9-5.2-5.2-5.2c-3.9,0.1-6.2,2.7-6.2,6.9v7.8h-1.3v-22.7h1.3v10.9
			c1.1-2.7,3.3-4.1,6.5-4.2c3.9,0,6.2,2.4,6.2,6.2V216.1z M121.4,218.4c-1,2.4-2.5,3.7-4.4,3.7c-1.2,0-2.2-0.3-3-0.9l0.6-1.1
			c0.7,0.5,1.5,0.7,2.4,0.7c1.4,0,2.7-1,3.4-2.9l0.7-1.8l-6.6-15.9h1.3l5.9,14.4l5.7-14.4h1.3L121.4,218.4z M145.6,216.1h-1.3v-4.2
			c-1.2,2.6-3.7,4.3-6.8,4.3c-4.5,0-7.8-3.4-7.8-8c0-4.7,3.2-8.1,7.7-8.1c3.1,0,5.6,1.6,6.8,4.3v-10.9h1.3v22.6H145.6z M159.4,201.5
			c-3.5,0-5.7,2.3-5.9,6v8.6h-1.3v-15.9h1.3v4c1-2.6,3.1-4,5.9-4V201.5z M169,216.1c-4.5,0-7.9-3.3-7.9-8s3.3-8,7.9-8
			c4.6,0,7.9,3.3,7.9,8S173.6,216.1,169,216.1z M194.9,214.4c0,4.7-3,7.7-7.7,7.7c-2.5-0.1-4.6-0.9-6.5-2.6l0.7-0.9
			c1.7,1.6,3.5,2.3,5.7,2.4c3.9,0,6.5-2.5,6.5-6.5v-3c-1.1,2.5-3.5,4.1-6.5,4.1c-4.3,0-7.4-3.2-7.4-7.6c0-4.5,3.1-7.7,7.3-7.7
			c3.1,0,5.4,1.6,6.5,4.1v-4.1h1.2v14.1H194.9z M206.9,215c2.2,0,4.1-0.8,5.4-2.2l0.7,0.8c-1.5,1.6-3.6,2.5-6.2,2.5
			c-4.5,0-7.8-3.3-7.8-8s3.3-8,7.8-8c4.7,0,7.5,3.4,7.4,8.3h-13.9C200.5,212.4,203.2,215,206.9,215z M220.1,207.5v8.6h-1.3v-15.9
			h1.3v4.1c1.1-2.6,3.3-4,6.5-4.1c3.9,0,6.2,2.4,6.2,6.2v9.7h-1.3v-9.5c0-3.3-1.9-5.2-5.2-5.2C222.7,201.5,220.4,203.8,220.1,207.5z
			 M233.6,306.9h-1.2v-20H227v-1.2h6.7v21.2H233.6z M244.6,307.1c-0.6,0-1-0.5-1-1.1s0.5-1.1,1-1.1c0.6,0,1.1,0.5,1.1,1.1
			C245.7,306.6,245.2,307.1,244.6,307.1z M256.7,306.9c-5,0-7.7-3.8-7.7-10.7c0-6.8,2.7-10.6,7.7-10.6c5,0,7.7,3.8,7.7,10.6
			C264.5,303.1,261.7,306.9,256.7,306.9z M275.4,306.9c-5,0-7.7-3.8-7.7-10.7c0-6.8,2.7-10.6,7.7-10.6s7.7,3.8,7.7,10.6
			C283.2,303.1,280.4,306.9,275.4,306.9z M294.2,306.9c-4.7,0-7.6-2.2-7.6-5.9c0-2.8,1.8-4.7,4.8-5.5c-2.4-0.8-3.8-2.4-3.8-4.8
			c0-3.2,2.5-5.1,6.6-5.1s6.5,1.9,6.5,5.2c0,2.4-1.4,4-3.8,4.8c3,0.8,4.8,2.7,4.8,5.5C301.7,304.7,298.8,306.9,294.2,306.9z"/>
		<path class="st0" d="M187.3,201.3c-3.7,0-6.3,2.8-6.3,6.5c0,3.8,2.6,6.5,6.3,6.5s6.4-2.8,6.4-6.5S191,201.3,187.3,201.3z"/>
		<path class="st0" d="M169,201.4c-3.8,0-6.6,2.8-6.6,6.8s2.8,6.8,6.6,6.8c3.9,0,6.6-2.8,6.6-6.8C175.6,204.1,172.8,201.4,169,201.4
			z"/>
		<path class="st0" d="M256.7,286.8c-4.2,0-6.5,3.3-6.5,9.5s2.3,9.5,6.5,9.5c4.2,0,6.5-3.3,6.5-9.5
			C263.2,290.1,260.9,286.8,256.7,286.8z"/>
		<path class="st0" d="M206.9,201.3c-3.6,0-6.2,2.4-6.5,6.1h12.7C212.9,203.7,210.5,201.3,206.9,201.3z"/>
		<path class="st0" d="M137.7,201.3c-3.9,0-6.6,2.9-6.7,6.8c0,4,2.8,6.8,6.7,6.8s6.6-2.9,6.6-6.8S141.6,201.3,137.7,201.3z"/>
		<path class="st0" d="M299.6,290.8c0-2.6-2-4.1-5.4-4.1s-5.4,1.5-5.4,4.1s2.1,4.2,5.4,4.2S299.6,293.5,299.6,290.8z"/>
		<path class="st0" d="M294.1,296.2c-3.9,0-6.3,1.8-6.3,4.6c0,3.1,2.4,4.9,6.4,4.9c3.9,0,6.3-1.8,6.3-4.9
			C300.5,298,298.1,296.2,294.1,296.2z"/>
		<path class="st0" d="M275.4,286.8c-4.2,0-6.5,3.3-6.5,9.5s2.3,9.5,6.5,9.5s6.5-3.3,6.5-9.5C281.9,290.1,279.6,286.8,275.4,286.8z"
			/>
	</g>
</g>
</svg>
