<?xml version="1.0" encoding="utf-8"?>
<!-- Generator: Adobe Illustrator 21.0.0, SVG Export Plug-In . SVG Version: 6.00 Build 0)  -->
<svg version="1.1" id="Periodic_Table" xmlns="http://www.w3.org/2000/svg" xmlns:xlink="http://www.w3.org/1999/xlink" x="0px"
	 y="0px" viewBox="0 0 326 326" style="enable-background:new 0 0 326 326;" xml:space="preserve">
<style type="text/css">
	.st0{fill:#FFFFFF;}
	.st1{opacity:0.1;}
</style>
<title>Artboard 3</title>
<g>
	<polygon class="st0" points="-461,6 -461,94 -459,94 -459,8 -149,8 -149,318 -459,318 -459,232 -461,232 -461,320 -147,320 -147,6 
			"/>
	
		<text transform="matrix(1 0 0 1 -346.2902 182.9236)" class="st0" style="font-family:'Montserrat-ExtraLight'; font-size:103.4875px;">Li</text>
	
		<text transform="matrix(1 0 0 1 -356.2919 217.8)" class="st0" style="font-family:'Montserrat-ExtraLight'; font-size:29.2176px;">lithium</text>
	
		<text transform="matrix(1 0 0 1 -447.792 46.7969)" class="st0" style="font-family:'Montserrat-ExtraLight'; font-size:37.4533px;">3</text>
	
		<text transform="matrix(1 0 0 1 -234.7998 304.5997)" class="st0" style="font-family:'Montserrat-ExtraLight'; font-size:37.4533px;">6.94</text>
</g>
<g>
	<rect class="st1" width="326" height="326"/>
	<g>
		<path class="st0" d="M244.8,289.4c-4.9,0-7.9,3.4-7.9,7c0,2.8,2.2,6.7,7.6,6.7c4.3,0,7.4-2.7,7.4-7
			C251.9,292,249.1,289.4,244.8,289.4z"/>
		<path class="st0" d="M273.1,279.8c-4.3,0-7.3,2.7-7.3,7c0,4.1,2.7,6.7,7,6.7c4.9,0,7.8-3.4,7.8-7
			C280.6,283.8,278.4,279.8,273.1,279.8z"/>
		<path class="st0" d="M6,6v314h314V6H6z M133.1,110.6h4.3v68.1h32.2v4.2h-36.5C133.1,182.9,133.1,110.6,133.1,110.6z M29,46.8
			c-3.1,0-6.3-0.9-8.6-2.4l0.8-1.3c2.1,1.4,4.9,2.2,7.8,2.2c5.3,0,8.4-2.7,8.4-6.4c0-3.8-3.2-5.8-8.5-5.8h-3.1V32l9.8-9.9h-14v-1.6
			h15.9v1.2l-9.9,10.1h1.8c5.7,0.1,9.6,2.7,9.6,6.9C38.9,43.6,35.1,46.8,29,46.8z M115.1,217.8h-1.2v-21.7h1.2V217.8z M122.5,217.8
			h-1.2v-15.2h1.2V217.8z M122,199.3c-0.6,0-1-0.5-1-1.1s0.5-1.1,1-1.1c0.6,0,1,0.5,1,1.1S122.5,199.3,122,199.3z M132.6,217.8
			c-2.2,0-3.4-1.4-3.4-4.2V204H127v-1h2.2v-3.8h1.2v3.8h5.2v1.1h-5.2v9.4c0,2.2,0.8,3.2,2.4,3.2c0.9,0,1.8-0.3,2.6-0.9l0.5,1
			C134.8,217.4,133.8,217.8,132.6,217.8z M153,217.8h-1.2v-9.1c0-3.1-1.8-5-5-5c-3.8,0.1-6,2.6-6,6.6v7.5h-1.2v-21.7h1.2v10.4
			c1-2.6,3.2-3.9,6.3-4c3.7,0,5.9,2.3,5.9,6V217.8z M159.8,217.8h-1.2v-15.2h1.2V217.8z M159.2,199.3c-0.6,0-1-0.5-1-1.1
			s0.5-1.1,1-1.1c0.6,0,1,0.5,1,1.1C160.3,198.8,159.8,199.3,159.2,199.3z M178.6,217.8h-1.2v-4.1c-1,2.6-3.1,4.1-6.1,4.1
			c-3.7,0-5.8-2.2-5.8-6v-9.3h1.2v9.1c0,3.1,1.8,5,4.9,5c3.7-0.1,5.8-2.6,5.8-6.6v-7.5h1.2L178.6,217.8L178.6,217.8z M181.9,113.5
			c0-2.1,1.7-3.7,3.6-3.7c2,0,3.6,1.7,3.6,3.7c0,2.2-1.7,3.8-3.6,3.8C183.5,117.3,181.9,115.7,181.9,113.5z M183.3,129h4.2v53.9
			h-4.2V129z M209.6,217.8h-1.2v-9.1c0-3.1-1.8-5-4.9-5c-3.7,0.1-5.8,2.6-5.8,6.6v7.5h-1.2v-9.1c0-3.1-1.8-5-4.9-5
			c-3.7,0.1-5.8,2.6-5.8,6.6v7.5h-1.2v-15.2h1.2v4c1-2.6,3.1-4,6.1-4c3.1,0,5.1,1.6,5.6,4.4c0.9-2.8,3.1-4.4,6.2-4.4
			c3.7,0,5.8,2.3,5.8,6L209.6,217.8L209.6,217.8z M244.6,304.6c-6.3,0-10-4.4-10-12.5c0-8.4,4-13.9,10.5-13.9c2.3,0,5,0.7,7.2,1.8
			l-0.7,1.3c-1.9-1-4.3-1.6-6.4-1.6c-6.4,0-9.7,5.5-9,14.5c0.9-3.9,4.1-6.3,8.7-6.3c5.2,0,8.4,3.1,8.4,8.2
			C253.4,301.5,249.9,304.6,244.6,304.6z M258.7,304.9c-0.7,0-1.3-0.6-1.3-1.4c0-0.7,0.6-1.3,1.3-1.3c0.7,0,1.3,0.6,1.3,1.3
			C260,304.3,259.4,304.9,258.7,304.9z M272.5,304.6c-2.3,0-4.9-0.7-7.1-1.7l0.7-1.3c1.8,1,4.2,1.6,6.3,1.6c6.3,0,9.6-5.5,8.9-14.5
			c-1,3.9-4.1,6.2-8.6,6.2c-5.1,0-8.3-3.1-8.3-8.2c0-5.2,3.4-8.5,8.6-8.5c6.2,0,10,4.4,10,12.5C282.9,299.2,278.9,304.6,272.5,304.6
			z M306.4,297.1H302v7.5h-1.5v-7.5H287v-1.5l10.5-17.2h1.6l-10.5,17.2h11.9v-7.8h1.5v7.8h4.4V297.1z"/>
	</g>
</g>
</svg>
