<?xml version="1.0" encoding="utf-8"?>
<!-- Generator: Adobe Illustrator 21.0.0, SVG Export Plug-In . SVG Version: 6.00 Build 0)  -->
<svg version="1.1" id="Periodic_Table" xmlns="http://www.w3.org/2000/svg" xmlns:xlink="http://www.w3.org/1999/xlink" x="0px"
	 y="0px" viewBox="0 0 326 326" style="enable-background:new 0 0 326 326;" xml:space="preserve">
<style type="text/css">
	.st0{fill:#FFFFFF;}
	.st1{opacity:0.1;}
</style>
<title>Artboard 3</title>
<polygon class="st0" points="-911,6 -911,94 -909,94 -909,8 -599,8 -599,318 -909,318 -909,232 -911,232 -911,320 -597,320 -597,6 
	"/>
<text transform="matrix(1 0 0 1 -799.7924 179.423)" class="st0" style="font-family:'Montserrat-ExtraLight'; font-size:103.4875px;">O</text>
<text transform="matrix(1 0 0 1 -805.7925 217.8)" class="st0" style="font-family:'Montserrat-ExtraLight'; font-size:29.2176px;">oxygen</text>
<text transform="matrix(0.9719 0 0 1 -897.7925 46.7969)" class="st0" style="font-family:'Montserrat-ExtraLight'; font-size:37.4533px;">8</text>
<text transform="matrix(1 0 0 1 -734.6667 304.5997)" class="st0" style="font-family:'Montserrat-ExtraLight'; font-size:37.4533px;">15.999</text>
<polygon class="st0" points="-1430.1,6 -1430.1,94 -1428.1,94 -1428.1,8 -1118.1,8 -1118.1,318 -1428.1,318 -1428.1,232 
	-1430.1,232 -1430.1,320 -1116.1,320 -1116.1,6 "/>
<text transform="matrix(1 0 0 1 -1311.8428 179.423)" class="st0" style="font-family:'Montserrat-ExtraLight'; font-size:103.4875px;">B</text>
<text transform="matrix(1 0 0 1 -1318.8445 217.8)" class="st0" style="font-family:'Montserrat-ExtraLight'; font-size:29.2176px;">boron</text>
<text transform="matrix(0.9719 0 0 1 -1416.8442 46.7969)" class="st0" style="font-family:'Montserrat-ExtraLight'; font-size:37.4533px;">5</text>
<text transform="matrix(1 0 0 1 -1221.7186 304.5997)" class="st0" style="font-family:'Montserrat-ExtraLight'; font-size:37.4533px;">10.81</text>
<rect class="st1" width="326" height="326"/>
<g>
	<path class="st0" d="M120.1,203.7c-3.7,0-6.3,2.7-6.3,6.5c0,3.9,2.7,6.5,6.3,6.5c3.7,0,6.3-2.7,6.3-6.5S123.8,203.7,120.1,203.7z"
		/>
	<path class="st0" d="M30.4,33.6c-4.7,0-7.6,2.2-7.6,5.7c0,3.8,2.9,6.1,7.6,6.1s7.6-2.2,7.6-6C38.1,35.8,35.2,33.6,30.4,33.6z"/>
	<path class="st0" d="M183.3,203.7c-3.4,0-5.9,2.3-6.2,5.8h12.2C189,206,186.7,203.7,183.3,203.7z"/>
	<path class="st0" d="M164.6,203.7c-3.5,0-6,2.6-6,6.3c0,3.6,2.5,6.2,6,6.2s6.1-2.6,6.1-6.2C170.6,206.3,168.1,203.7,164.6,203.7z"
		/>
	<path class="st0" d="M159.4,175.3c18.1,0,33-14.4,33-32.1s-14.9-32-33-32s-33,14.3-33,32C126.4,160.9,141.3,175.3,159.4,175.3z"/>
	<path class="st0" d="M36.9,27c0-3.2-2.4-5.1-6.5-5.1c-4,0-6.5,1.9-6.5,5.1c0,3.3,2.5,5.2,6.5,5.2C34.5,32.2,36.9,30.2,36.9,27z"/>
	<path class="st0" d="M292.6,279.8c-4.3,0-7.3,2.7-7.3,7c0,4.1,2.7,6.7,7,6.7c4.9,0,7.8-3.4,7.8-7
		C300.1,283.8,297.8,279.8,292.6,279.8z"/>
	<path class="st0" d="M246.4,279.8c-4.3,0-7.3,2.7-7.3,7c0,4.1,2.7,6.7,7,6.7c4.9,0,7.8-3.4,7.8-7
		C253.9,283.8,251.6,279.8,246.4,279.8z"/>
	<path class="st0" d="M6,6v314h314V6H6z M159.4,107c20.7,0,37.5,16.1,37.5,36.2s-16.8,36.3-37.5,36.3s-37.5-16.2-37.5-36.3
		S138.7,107,159.4,107z M30.5,46.8c-5.6,0-9.1-2.7-9.1-7.3c0-3.5,2.2-5.8,5.8-6.8c-2.9-1-4.6-3-4.6-5.9c0-4,3-6.3,7.9-6.3
		s7.9,2.4,7.9,6.4c0,3-1.7,4.9-4.6,5.9c3.6,0.9,5.8,3.3,5.8,6.7C39.5,44.1,36.1,46.8,30.5,46.8z M120.1,217.8
		c-4.3,0-7.5-3.2-7.5-7.7s3.2-7.6,7.5-7.6c4.4,0,7.5,3.2,7.5,7.6C127.6,214.7,124.5,217.8,120.1,217.8z M140.5,217.8l-5.1-6.9
		l-5.1,6.9h-1.4l5.8-7.9l-5.3-7.4h1.4l4.7,6.5l4.7-6.5h1.4l-5.3,7.4l5.7,7.9H140.5z M149.4,220c-0.9,2.3-2.4,3.5-4.2,3.5
		c-1.1,0-2.1-0.3-2.9-0.9l0.5-1.1c0.7,0.5,1.5,0.7,2.3,0.7c1.4,0,2.5-1,3.3-2.7l0.7-1.7l-6.3-15.2h1.3l5.6,13.8l5.5-13.8h1.3
		L149.4,220z M171.8,216.1c0,4.5-2.9,7.4-7.4,7.3c-2.4-0.1-4.4-0.9-6.2-2.5l0.6-0.9c1.6,1.5,3.3,2.2,5.5,2.3c3.8,0,6.2-2.4,6.2-6.2
		v-2.9c-1.1,2.4-3.3,3.9-6.2,3.9c-4.1,0-7-3.1-7-7.3c0-4.3,3-7.3,7-7.3c2.9,0,5.2,1.5,6.3,3.9v-3.9h1.2L171.8,216.1L171.8,216.1z
		 M175.8,210.2c0-4.5,3.1-7.7,7.4-7.7c4.5,0,7.2,3.3,7.1,8H177c0.2,3.7,2.7,6.2,6.3,6.2c2.1,0,3.9-0.8,5.1-2.1l0.7,0.8
		c-1.4,1.5-3.5,2.4-5.9,2.4C179,217.8,175.8,214.7,175.8,210.2z M195.1,304.6h-1.5v-24.7h-6.7v-1.5h8.2V304.6z M201.8,203.8
		c-3.5,0.1-5.7,2.3-5.9,5.8v8.2h-1.2v-15.2h1.2v3.9c1-2.5,3.2-3.9,6.2-3.9c3.7,0,5.9,2.3,5.9,6v9.3h-1.2v-9.1
		C206.8,205.6,205,203.8,201.8,203.8z M216.5,304.6c-2.9,0-6.4-1.1-8.9-2.7l0.7-1.3c2.4,1.5,5.6,2.5,8.1,2.5c4.8,0,7.9-2.7,7.9-6.9
		c0-3.6-3.1-6-7.8-6c-2,0-4.9,0.5-7,1.1v-12.9h15.4v1.5H211v9.6c1.8-0.5,4.1-0.8,5.7-0.8c5.6,0,9.3,3,9.3,7.5
		C225.9,301.3,222.1,304.6,216.5,304.6z M231.9,304.9c-0.7,0-1.3-0.6-1.3-1.4c0-0.7,0.6-1.3,1.3-1.3s1.3,0.6,1.3,1.3
		C233.2,304.3,232.6,304.9,231.9,304.9z M245.7,304.6c-2.3,0-4.9-0.7-7.1-1.7l0.7-1.3c1.8,1,4.2,1.6,6.3,1.6c6.3,0,9.6-5.5,8.9-14.5
		c-1,3.9-4.1,6.2-8.6,6.2c-5.1,0-8.3-3.1-8.3-8.2c0-5.2,3.4-8.5,8.6-8.5c6.2,0,10,4.4,10,12.5C256.2,299.2,252.2,304.6,245.7,304.6z
		 M268.9,304.6c-2.3,0-4.9-0.7-7.1-1.7l0.7-1.3c1.8,1,4.2,1.6,6.3,1.6c6.3,0,9.6-5.5,8.9-14.5c-1,3.9-4.1,6.2-8.6,6.2
		c-5.1,0-8.3-3.1-8.3-8.2c0-5.2,3.4-8.5,8.6-8.5c6.2,0,10,4.4,10,12.5C279.3,299.2,275.3,304.6,268.9,304.6z M292,304.6
		c-2.3,0-4.9-0.7-7.1-1.7l0.7-1.3c1.8,1,4.2,1.6,6.3,1.6c6.3,0,9.6-5.5,8.9-14.5c-1,3.9-4.1,6.2-8.6,6.2c-5.1,0-8.3-3.1-8.3-8.2
		c0-5.2,3.4-8.5,8.6-8.5c6.2,0,10,4.4,10,12.5C302.4,299.2,298.4,304.6,292,304.6z"/>
	<path class="st0" d="M269.5,279.8c-4.3,0-7.3,2.7-7.3,7c0,4.1,2.7,6.7,7,6.7c4.9,0,7.8-3.4,7.8-7
		C277,283.8,274.7,279.8,269.5,279.8z"/>
</g>
</svg>
